<svg xmlns="http://www.w3.org/2000/svg" width="1101" height="1101" viewBox="0 0 1101 1101" version="1.1"><path d="M 376 548.090 L 376 615.181 409.750 614.734 C 445.079 614.266, 447.429 614, 458.154 609.256 C 477.957 600.496, 483.967 567.991, 468.547 553.046 C 466.817 551.369, 462.571 548.485, 459.111 546.636 L 452.820 543.275 456.160 541.203 C 461.253 538.045, 465.653 533.032, 468.190 527.500 C 471.298 520.724, 471.356 508.612, 468.314 501.878 C 465.682 496.052, 459.912 489.619, 454.447 486.416 C 446.698 481.875, 439.214 481.036, 406.250 481.017 L 376 481 376 548.090 M 492.832 488.088 C 492.649 491.986, 492.688 495.361, 492.917 495.588 C 493.146 495.814, 503.158 496, 515.167 496 L 537 496 537 555.500 L 537 615 545.500 615 L 554 615 554 555.519 L 554 496.038 576.250 495.769 L 598.500 495.500 598.794 488.250 L 599.088 481 546.126 481 L 493.164 481 492.832 488.088 M 618 548 L 618 615 627 615 L 636 615 636 584.500 L 636 554 667.500 554 L 699 554 699 546.514 L 699 539.028 667.750 538.764 L 636.500 538.500 636.230 517.262 L 635.960 496.025 672.230 495.762 L 708.500 495.500 708.794 488.250 L 709.088 481 663.544 481 L 618 481 618 548 M 394 516.500 L 394 537 415.322 537 C 439.286 537, 443.539 536.199, 448.709 530.709 C 455.814 523.165, 455.759 509.559, 448.594 502.394 C 443.262 497.062, 437.570 496, 414.318 496 L 394 496 394 516.500 M 394.231 576.184 L 394.500 599.500 417 599.471 C 443.818 599.437, 447.520 598.624, 453.910 591.365 C 463.916 579.998, 460.583 562.444, 447.232 556.186 C 441.591 553.543, 441.121 553.495, 417.731 553.184 L 393.963 552.869 394.231 576.184" stroke="none" fill="#ffffff" fill-rule="evenodd"/><path d="M 296 293.500 C 325.421 322.925, 349.973 347, 350.559 347 C 351.146 347, 352.932 345.636, 354.529 343.970 L 357.432 340.940 306.970 290.470 L 256.507 240 249.507 240 L 242.507 240 296 293.500 M 327.500 283 C 351.145 306.650, 370.972 326, 371.559 326 C 372.146 326, 373.932 324.637, 375.528 322.970 L 378.431 319.941 338.470 279.970 L 298.509 240 291.509 240 L 284.509 240 327.500 283 M 359.495 272.995 L 392.478 305.989 395.977 302.489 L 399.477 298.990 369.995 269.495 L 340.513 240 333.512 240 L 326.511 240 359.495 272.995 M 390.981 262.481 L 413.445 284.961 416.745 281.763 L 420.045 278.564 400.782 259.282 L 381.519 240 375.018 240 L 368.517 240 390.981 262.481 M 421.730 252.220 L 433.951 264.440 437.493 261.007 L 441.035 257.574 432.288 248.787 L 423.542 240 416.526 240 L 409.510 240 421.730 252.220 M 453.286 241.714 C 454.905 243.333, 455.095 243.333, 456.714 241.714 C 458.333 240.095, 458.238 240, 455 240 C 451.762 240, 451.667 240.095, 453.286 241.714 M 736.502 354.011 L 850.500 468.023 850.812 463.326 L 851.125 458.628 741.814 349.314 L 632.503 240 627.503 240 L 622.503 240 736.502 354.011 M 755.502 335.009 L 850.500 430.019 850.803 423.814 L 851.106 417.610 762.305 328.805 L 673.504 240 667.004 240 L 660.504 240 755.502 335.009 M 776.003 314.509 L 850.500 389.018 850.800 382.312 L 851.100 375.606 783.303 307.803 L 715.506 240 708.505 240 L 701.505 240 776.003 314.509 M 797.004 293.510 L 850.500 347.020 850.800 340.314 L 851.100 333.608 804.304 286.804 L 757.508 240 750.507 240 L 743.507 240 797.004 293.510 M 818.006 272.512 L 850.500 305.025 850.800 298.320 L 851.100 291.614 825.307 265.807 L 799.514 240 792.513 240 L 785.512 240 818.006 272.512 M 838.516 252.022 L 850.500 264.045 850.800 257.354 L 851.099 250.663 845.834 245.332 L 840.568 240 833.550 240 L 826.531 240 838.516 252.022 M 229.300 261.544 L 229.591 268.088 279.764 318.261 L 329.937 368.435 332.969 365.530 C 334.636 363.933, 336 362.146, 336 361.559 C 336 360.376, 230.931 255, 229.751 255 C 229.344 255, 229.141 257.945, 229.300 261.544 M 229.708 298.319 C 229.387 299.155, 229.323 302.237, 229.566 305.169 L 230.008 310.500 269.473 349.967 L 308.937 389.434 311.969 386.530 C 313.636 384.933, 315 383.146, 315 382.558 C 315 381.971, 295.940 362.436, 272.645 339.145 C 242.734 309.240, 230.120 297.246, 229.708 298.319 M 229.550 345.686 L 229.876 352.371 258.912 381.407 L 287.947 410.443 291.498 407.002 L 295.049 403.560 262.780 371.280 C 245.032 353.526, 230.222 339, 229.868 339 C 229.514 339, 229.371 342.009, 229.550 345.686 M 340 550 L 340 740 540 740 L 740 740 740 550 L 740 360 540 360 L 340 360 340 550 M 229.224 386.181 L 229.094 392.492 248.315 411.783 L 267.535 431.075 270.748 427.760 L 273.961 424.445 251.658 402.158 L 229.354 379.871 229.224 386.181 M 229.437 428.564 L 229.671 435.128 238.066 443.567 L 246.461 452.005 249.964 448.503 L 253.467 445 242 433.500 C 235.693 427.175, 230.233 422, 229.867 422 C 229.502 422, 229.308 424.954, 229.437 428.564 M 376 547.579 L 376 615.158 410.750 614.787 C 443.826 614.434, 445.813 614.307, 452 612.140 C 463.829 607.996, 471.484 600.717, 475.556 589.739 C 478.412 582.041, 478.240 569.160, 475.192 562.500 C 472.101 555.744, 465.715 549.351, 458.683 545.972 C 454.015 543.729, 453.255 543.054, 454.834 542.553 C 455.916 542.209, 459.060 539.705, 461.820 536.988 C 468.684 530.231, 471.316 523.188, 470.782 513 C 469.862 495.431, 458.684 484.264, 438.787 481.035 C 435.329 480.474, 419.788 480.012, 404.250 480.008 L 376 480 376 547.579 M 492.675 480.658 C 492.304 481.029, 492 484.625, 492 488.648 L 492 495.962 514.039 496.231 L 536.079 496.500 536.289 555.500 L 536.500 614.500 545.242 614.789 L 553.984 615.078 554.242 555.789 L 554.500 496.500 576.792 496.231 L 599.083 495.962 598.792 488.231 L 598.500 480.500 545.925 480.241 C 517.009 480.099, 493.047 480.286, 492.675 480.658 M 618.677 480.656 C 618.305 481.029, 618 511.408, 618 548.167 L 618 615 626.985 615 L 635.971 615 636.235 584.750 L 636.500 554.500 667.750 554.236 L 699 553.972 699 545.986 L 699 538 667.480 538 L 635.959 538 636.230 517.250 L 636.500 496.500 672.792 496.237 L 709.084 495.975 708.792 488.237 L 708.500 480.500 663.927 480.240 C 639.412 480.097, 619.049 480.284, 618.677 480.656 M 394.750 496.549 C 394.337 496.980, 394 506.296, 394 517.250 L 394 537.166 416.250 536.828 C 436.511 536.520, 438.918 536.297, 443.177 534.333 C 450.193 531.099, 453.418 525.668, 453.389 517.140 C 453.357 507.490, 448.702 500.307, 440.925 497.902 C 436.815 496.631, 395.820 495.430, 394.750 496.549 M 394 575.959 L 394 599.129 418.281 598.814 C 442.060 598.506, 442.665 598.447, 447.522 595.945 C 454.733 592.231, 458.296 586.711, 458.823 578.436 C 459.327 570.530, 457.390 564.740, 452.734 560.227 C 446.799 554.474, 443.028 553.731, 417.250 553.236 L 394 552.789 394 575.959 M 229.773 634.149 C 229.488 634.893, 229.369 637.473, 229.510 639.883 L 229.766 644.264 338.189 752.688 L 446.613 861.111 452.316 860.806 L 458.019 860.500 344.156 746.648 C 273.135 675.634, 230.097 633.305, 229.773 634.149 M 848.958 634.550 C 847.896 635.831, 847.961 636.390, 849.336 637.764 C 850.888 639.317, 851 639.212, 851 636.214 C 851 632.568, 850.763 632.375, 848.958 634.550 M 829.993 653.507 L 826.560 657.049 838.780 669.270 L 851 681.490 851 674.474 L 851 667.458 842.213 658.712 L 833.426 649.965 829.993 653.507 M 809.237 674.255 L 806.039 677.555 828.519 700.019 L 851 722.483 851 715.982 L 851 709.481 831.718 690.218 L 812.436 670.955 809.237 674.255 M 229.452 678.935 L 229.599 686.062 317.094 773.582 L 404.590 861.101 411.304 860.800 L 418.017 860.500 323.661 766.154 L 229.305 671.808 229.452 678.935 M 788.217 695.276 L 785.041 698.553 818.021 731.521 L 851 764.489 851 757.488 L 851 750.487 821.744 721.244 C 805.653 705.160, 792.241 692, 791.940 692 C 791.639 692, 789.963 693.474, 788.217 695.276 M 767.217 716.276 L 764.043 719.551 807.521 763.021 L 851 806.491 851 799.491 L 851 792.491 811.245 752.745 C 789.380 730.885, 771.244 713, 770.942 713 C 770.639 713, 768.964 714.474, 767.217 716.276 M 229.801 714.634 C 229.547 715.110, 229.400 718.111, 229.474 721.303 L 229.608 727.106 296.605 794.103 L 363.602 861.100 370.310 860.800 L 377.019 860.500 303.640 787.134 C 263.282 746.782, 230.054 714.157, 229.801 714.634 M 746.218 737.275 L 743.043 740.550 797.022 794.522 L 851 848.493 851 841.493 L 851 834.493 800.746 784.246 C 773.107 756.611, 750.245 734, 749.942 734 C 749.640 734, 747.964 735.474, 746.218 737.275 M 725.471 758.030 L 722.568 761.060 772.530 811.030 L 822.492 861 829.493 861 L 836.493 861 783.500 808 C 754.354 778.850, 730.027 755, 729.441 755 C 728.854 755, 727.068 756.364, 725.471 758.030 M 229.523 757.080 C 229.210 757.895, 229.132 760.965, 229.350 763.902 L 229.746 769.243 275.674 815.172 L 321.603 861.100 328.312 860.800 L 335.021 860.500 282.556 808.049 C 246.423 771.926, 229.914 756.060, 229.523 757.080 M 704.999 778.501 L 701.556 782.053 741.080 821.577 L 780.604 861.100 787.313 860.800 L 794.022 860.500 751.232 817.725 L 708.441 774.950 704.999 778.501 M 683.998 799.502 L 680.557 803.053 709.581 832.076 L 738.605 861.100 745.315 860.800 L 752.025 860.500 719.732 828.226 L 687.440 795.951 683.998 799.502 M 229.692 798.690 C 229.379 799.195, 229.255 802.217, 229.414 805.404 L 229.705 811.200 254.655 836.150 L 279.605 861.100 286.315 860.800 L 293.025 860.500 261.642 829.136 C 244.382 811.885, 230.004 798.185, 229.692 798.690 M 663.237 820.255 L 660.037 823.557 678.831 842.331 L 697.625 861.105 703.828 860.803 L 710.032 860.500 688.234 838.727 L 666.437 816.954 663.237 820.255 M 642.209 841.285 L 639.025 844.569 647.283 852.785 L 655.542 861 662.505 861 L 669.467 861 658 849.500 C 651.693 843.175, 646.276 838, 645.962 838 C 645.649 838, 643.960 839.478, 642.209 841.285 M 229.342 845.346 C 229.641 851.885, 229.811 852.285, 234.142 856.615 C 238.604 861.077, 238.669 861.103, 244.840 860.803 L 251.049 860.500 240.040 849.533 L 229.032 838.566 229.342 845.346" stroke="none" fill="#050504" fill-rule="evenodd"/><path d="M 514.560 1.024 C 432.806 7.028, 355.709 29.451, 286.735 67.286 C 109.389 164.567, 0.020 348.892, 0.020 550.500 C 0.020 661.191, 33.128 768.347, 95.848 860.651 C 115.760 889.954, 134.759 912.784, 161.486 939.523 C 189.002 967.053, 215.028 988.359, 247 1009.527 C 429.537 1130.384, 667.740 1131.055, 851 1011.229 C 992.574 918.660, 1082.962 768.098, 1098.478 599 C 1099.311 589.925, 1100.067 578.450, 1100.159 573.500 C 1100.312 565.229, 1100.381 564.945, 1101 570 C 1101.371 573.025, 1101.672 563.800, 1101.669 549.500 C 1101.666 535.200, 1101.365 526.200, 1101 529.500 L 1100.336 535.500 1100.158 527 C 1099.914 515.392, 1098.341 497.506, 1095.955 479.213 C 1083.644 384.814, 1047.266 295.665, 989.979 219.500 C 938.822 151.486, 872.996 96.554, 797.130 58.567 C 736.034 27.976, 671.884 9.445, 602.945 2.474 C 584.704 0.630, 531.757 -0.239, 514.560 1.024 M 296 293.500 C 325.421 322.925, 349.973 347, 350.559 347 C 351.146 347, 352.932 345.636, 354.529 343.970 L 357.432 340.940 306.970 290.470 L 256.507 240 249.507 240 L 242.507 240 296 293.500 M 327.500 283 C 351.145 306.650, 370.972 326, 371.559 326 C 372.146 326, 373.932 324.637, 375.528 322.970 L 378.431 319.941 338.470 279.970 L 298.509 240 291.509 240 L 284.509 240 327.500 283 M 359.495 272.995 L 392.478 305.989 395.977 302.489 L 399.477 298.990 369.995 269.495 L 340.513 240 333.512 240 L 326.511 240 359.495 272.995 M 390.981 262.481 L 413.445 284.961 416.745 281.763 L 420.045 278.564 400.782 259.282 L 381.519 240 375.018 240 L 368.517 240 390.981 262.481 M 421.730 252.220 L 433.951 264.440 437.493 261.007 L 441.035 257.574 432.288 248.787 L 423.542 240 416.526 240 L 409.510 240 421.730 252.220 M 453.286 241.714 C 454.905 243.333, 455.095 243.333, 456.714 241.714 C 458.333 240.095, 458.238 240, 455 240 C 451.762 240, 451.667 240.095, 453.286 241.714 M 736.502 354.011 L 850.500 468.023 850.812 463.326 L 851.125 458.628 741.814 349.314 L 632.503 240 627.503 240 L 622.503 240 736.502 354.011 M 755.502 335.009 L 850.500 430.019 850.803 423.814 L 851.106 417.610 762.305 328.805 L 673.504 240 667.004 240 L 660.504 240 755.502 335.009 M 776.003 314.509 L 850.500 389.018 850.800 382.312 L 851.100 375.606 783.303 307.803 L 715.506 240 708.505 240 L 701.505 240 776.003 314.509 M 797.004 293.510 L 850.500 347.020 850.800 340.314 L 851.100 333.608 804.304 286.804 L 757.508 240 750.507 240 L 743.507 240 797.004 293.510 M 818.006 272.512 L 850.500 305.025 850.800 298.320 L 851.100 291.614 825.307 265.807 L 799.514 240 792.513 240 L 785.512 240 818.006 272.512 M 838.516 252.022 L 850.500 264.045 850.800 257.354 L 851.099 250.663 845.834 245.332 L 840.568 240 833.550 240 L 826.531 240 838.516 252.022 M 229.300 261.544 L 229.591 268.088 279.764 318.261 L 329.937 368.435 332.969 365.530 C 334.636 363.933, 336 362.146, 336 361.559 C 336 360.376, 230.931 255, 229.751 255 C 229.344 255, 229.141 257.945, 229.300 261.544 M 229.708 298.319 C 229.387 299.155, 229.323 302.237, 229.566 305.169 L 230.008 310.500 269.473 349.967 L 308.937 389.434 311.969 386.530 C 313.636 384.933, 315 383.146, 315 382.558 C 315 381.971, 295.940 362.436, 272.645 339.145 C 242.734 309.240, 230.120 297.246, 229.708 298.319 M 229.550 345.686 L 229.876 352.371 258.912 381.407 L 287.947 410.443 291.498 407.002 L 295.049 403.560 262.780 371.280 C 245.032 353.526, 230.222 339, 229.868 339 C 229.514 339, 229.371 342.009, 229.550 345.686 M 340 550 L 340 740 540 740 L 740 740 740 550 L 740 360 540 360 L 340 360 340 550 M 229.224 386.181 L 229.094 392.492 248.315 411.783 L 267.535 431.075 270.748 427.760 L 273.961 424.445 251.658 402.158 L 229.354 379.871 229.224 386.181 M 229.437 428.564 L 229.671 435.128 238.066 443.567 L 246.461 452.005 249.964 448.503 L 253.467 445 242 433.500 C 235.693 427.175, 230.233 422, 229.867 422 C 229.502 422, 229.308 424.954, 229.437 428.564 M 390.812 480.748 C 399.233 480.916, 412.733 480.915, 420.812 480.748 C 428.890 480.580, 422 480.443, 405.500 480.443 C 389 480.444, 382.390 480.581, 390.812 480.748 M 492.415 481.362 C 492.127 482.111, 492.056 485.374, 492.257 488.612 L 492.622 494.500 492.811 487.759 L 493 481.018 545.750 480.750 L 598.500 480.482 545.719 480.241 C 501.937 480.041, 492.848 480.232, 492.415 481.362 M 641.318 480.749 C 653.868 480.908, 674.118 480.908, 686.318 480.749 C 698.518 480.590, 688.250 480.460, 663.500 480.460 C 638.750 480.460, 628.768 480.590, 641.318 480.749 M 536.468 556.500 C 536.468 588.400, 536.595 601.595, 536.749 585.821 C 536.904 570.048, 536.904 543.948, 536.750 527.821 C 536.595 511.695, 536.468 524.600, 536.468 556.500 M 0.436 550.500 C 0.436 564.800, 0.577 570.511, 0.748 563.191 C 0.919 555.871, 0.918 544.171, 0.747 537.191 C 0.575 530.211, 0.435 536.200, 0.436 550.500 M 652.250 538.748 C 660.913 538.915, 675.087 538.915, 683.750 538.748 C 692.413 538.582, 685.325 538.445, 668 538.445 C 650.675 538.445, 643.587 538.582, 652.250 538.748 M 404.803 599.746 C 410.470 599.925, 419.470 599.924, 424.803 599.745 C 430.136 599.565, 425.500 599.419, 414.500 599.420 C 403.500 599.421, 399.136 599.568, 404.803 599.746 M 229.773 634.149 C 229.488 634.893, 229.369 637.473, 229.510 639.883 L 229.766 644.264 338.189 752.688 L 446.613 861.111 452.316 860.806 L 458.019 860.500 344.156 746.648 C 273.135 675.634, 230.097 633.305, 229.773 634.149 M 848.958 634.550 C 847.896 635.831, 847.961 636.390, 849.336 637.764 C 850.888 639.317, 851 639.212, 851 636.214 C 851 632.568, 850.763 632.375, 848.958 634.550 M 829.993 653.507 L 826.560 657.049 838.780 669.270 L 851 681.490 851 674.474 L 851 667.458 842.213 658.712 L 833.426 649.965 829.993 653.507 M 809.237 674.255 L 806.039 677.555 828.519 700.019 L 851 722.483 851 715.982 L 851 709.481 831.718 690.218 L 812.436 670.955 809.237 674.255 M 229.452 678.935 L 229.599 686.062 317.094 773.582 L 404.590 861.101 411.304 860.800 L 418.017 860.500 323.661 766.154 L 229.305 671.808 229.452 678.935 M 788.217 695.276 L 785.041 698.553 818.021 731.521 L 851 764.489 851 757.488 L 851 750.487 821.744 721.244 C 805.653 705.160, 792.241 692, 791.940 692 C 791.639 692, 789.963 693.474, 788.217 695.276 M 767.217 716.276 L 764.043 719.551 807.521 763.021 L 851 806.491 851 799.491 L 851 792.491 811.245 752.745 C 789.380 730.885, 771.244 713, 770.942 713 C 770.639 713, 768.964 714.474, 767.217 716.276 M 229.801 714.634 C 229.547 715.110, 229.400 718.111, 229.474 721.303 L 229.608 727.106 296.605 794.103 L 363.602 861.100 370.310 860.800 L 377.019 860.500 303.640 787.134 C 263.282 746.782, 230.054 714.157, 229.801 714.634 M 746.218 737.275 L 743.043 740.550 797.022 794.522 L 851 848.493 851 841.493 L 851 834.493 800.746 784.246 C 773.107 756.611, 750.245 734, 749.942 734 C 749.640 734, 747.964 735.474, 746.218 737.275 M 725.471 758.030 L 722.568 761.060 772.530 811.030 L 822.492 861 829.493 861 L 836.493 861 783.500 808 C 754.354 778.850, 730.027 755, 729.441 755 C 728.854 755, 727.068 756.364, 725.471 758.030 M 229.523 757.080 C 229.210 757.895, 229.132 760.965, 229.350 763.902 L 229.746 769.243 275.674 815.172 L 321.603 861.100 328.312 860.800 L 335.021 860.500 282.556 808.049 C 246.423 771.926, 229.914 756.060, 229.523 757.080 M 704.999 778.501 L 701.556 782.053 741.080 821.577 L 780.604 861.100 787.313 860.800 L 794.022 860.500 751.232 817.725 L 708.441 774.950 704.999 778.501 M 683.998 799.502 L 680.557 803.053 709.581 832.076 L 738.605 861.100 745.315 860.800 L 752.025 860.500 719.732 828.226 L 687.440 795.951 683.998 799.502 M 229.692 798.690 C 229.379 799.195, 229.255 802.217, 229.414 805.404 L 229.705 811.200 254.655 836.150 L 279.605 861.100 286.315 860.800 L 293.025 860.500 261.642 829.136 C 244.382 811.885, 230.004 798.185, 229.692 798.690 M 663.237 820.255 L 660.037 823.557 678.831 842.331 L 697.625 861.105 703.828 860.803 L 710.032 860.500 688.234 838.727 L 666.437 816.954 663.237 820.255 M 642.209 841.285 L 639.025 844.569 647.283 852.785 L 655.542 861 662.505 861 L 669.467 861 658 849.500 C 651.693 843.175, 646.276 838, 645.962 838 C 645.649 838, 643.960 839.478, 642.209 841.285 M 229.342 845.346 C 229.641 851.885, 229.811 852.285, 234.142 856.615 C 238.604 861.077, 238.669 861.103, 244.840 860.803 L 251.049 860.500 240.040 849.533 L 229.032 838.566 229.342 845.346" stroke="none" fill="#ebad14" fill-rule="evenodd"/></svg>